<?xml version="1.0" encoding="UTF-8" standalone="no"?>
<svg
   xmlns:dc="http://purl.org/dc/elements/1.1/"
   xmlns:cc="http://creativecommons.org/ns#"
   xmlns:rdf="http://www.w3.org/1999/02/22-rdf-syntax-ns#"
   xmlns:svg="http://www.w3.org/2000/svg"
   xmlns="http://www.w3.org/2000/svg"
   xmlns:sodipodi="http://sodipodi.sourceforge.net/DTD/sodipodi-0.dtd"
   xmlns:inkscape="http://www.inkscape.org/namespaces/inkscape"
   sodipodi:docname="Jtree.svg"
   inkscape:version="1.0beta2 (2b71d25, 2019-12-03)"
   id="svg899"
   version="1.1"
   viewBox="0 0 210 297"
   height="297mm"
   width="210mm">
  <defs
     id="defs893" />
  <sodipodi:namedview
     inkscape:snap-nodes="false"
     showguides="true"
     inkscape:window-maximized="0"
     inkscape:window-y="23"
     inkscape:window-x="0"
     inkscape:window-height="755"
     inkscape:window-width="1280"
     showgrid="false"
     inkscape:document-rotation="0"
     inkscape:current-layer="layer1"
     inkscape:document-units="mm"
     inkscape:cy="508.66062"
     inkscape:cx="428.57045"
     inkscape:zoom="4.9683249"
     inkscape:pageshadow="2"
     inkscape:pageopacity="0.0"
     borderopacity="1.0"
     bordercolor="#666666"
     pagecolor="#ffffff"
     id="base" />
  <metadata
     id="metadata896">
    <rdf:RDF>
      <cc:Work
         rdf:about="">
        <dc:format>image/svg+xml</dc:format>
        <dc:type
           rdf:resource="http://purl.org/dc/dcmitype/StillImage" />
        <dc:title />
      </cc:Work>
    </rdf:RDF>
  </metadata>
  <g
     id="layer1"
     inkscape:groupmode="layer"
     inkscape:label="Layer 1">
    <path
       sodipodi:nodetypes="ccccccccccccccccccccccccccccccccccccccccccccccc"
       inkscape:connector-curvature="0"
       id="path1472"
       d="m 84.674374,206.2581 0.482476,-46.55885 c -9.857302,-1.93239 -14.435439,-5.84446 -19.299003,-9.6495 l -8.443312,2.41237 -0.723715,-3.13608 8.92579,-2.41238 c -4.229814,-1.68866 -6.272214,-3.37733 -7.960839,-5.06599 l -2.653612,-4.10103 3.136088,-1.44743 2.171137,3.37732 c 1.884095,2.34316 4.496972,3.22876 6.99589,4.34228 4.512454,3.30189 9.637585,9.55622 15.921675,8.72429 1.909296,-0.2757 3.693494,-0.46577 2.386494,-3.22019 l -0.939067,-1.40306 c -3.847908,-4.74434 -8.486796,-9.48868 -16.162915,-14.23302 l 1.206188,-2.17113 3.8598,2.65361 c -2.487325,-5.22681 -4.99265,-10.45363 -4.342275,-15.68044 l 2.894851,-0.48248 c -0.546607,5.38764 1.9841,10.77528 4.583512,16.16292 v 1.44743 c 4.414253,2.65783 6.940486,6.25967 10.16248,9.51363 2.184994,2.25586 4.018766,2.64438 4.55301,0.85958 l 3.618563,-18.57529 -1.688664,-7.47837 1.688664,-5.30722 3.377327,0.24124 -1.206188,4.82475 0.723712,3.13609 c 6.052689,-2.32109 8.054389,-6.66767 10.373219,-10.85569 l 2.65361,1.9299 c -2.72553,5.15206 -6.0054,9.93457 -12.544353,12.54435 l -2.653615,19.54024 c -1.72947,8.0155 1.669349,5.73447 3.136088,5.30723 9.4526,-2.42064 16.07631,-6.37108 18.49381,-12.43785 l 2.17114,-4.34227 -1.36595,-11.92715 3.8598,-0.48248 0.96496,11.5794 4.58351,-3.13609 1.44742,2.89486 -4.82475,3.13608 -3.37732,4.34228 c -2.25559,3.98927 -3.89822,7.59604 -21.781626,14.71087 -3.248591,0.90539 -5.200713,1.45772 -5.236982,3.62318 l -0.241236,47.04132 z"
       style="fill:#b5810e;fill-opacity:1;stroke:none;stroke-width:0.264583px;stroke-linecap:butt;stroke-linejoin:miter;stroke-opacity:1" />
    <path
       inkscape:connector-curvature="0"
       id="path1492"
       d="m 54.519684,137.26416 -0.96495,-10.37321 3.136089,10.13197 1.9299,-10.13197 -0.723712,10.13197 5.7897,-7.47836 -5.548464,9.16703 8.443315,-2.17114 -9.408266,0.96495 4.101039,6.75465 -5.065988,-5.7897 -3.136088,5.54846 3.136088,-6.03094 -9.167026,0.96495 8.684551,-3.8598 -5.548463,-6.03093 5.548463,7.23712 1.206188,-8.68455 0.964951,8.92579 2.894848,-8.20208 -2.171136,8.44332 7.7196,-3.8598 -8.443312,4.82475 6.030936,5.06598 -6.995887,-4.34227 -1.206188,7.7196 0.723712,-7.96084 1.9299,7.23713 -0.964949,-7.23713 7.478363,1.68867 -7.237126,-3.61857 -5.789701,6.27218 4.824752,-6.27218 -8.92579,-3.61856 8.443314,4.58351 -8.202076,3.13609 9.167025,-2.17114 5.06599,4.34228 -5.06599,-4.58352 -11.096926,-1.68866 z"
       style="fill:#48bb4f;fill-opacity:1;stroke:none;stroke-width:0.264583px;stroke-linecap:butt;stroke-linejoin:miter;stroke-opacity:1" />
    <path
       style="fill:#48bb4f;fill-opacity:1;stroke:none;stroke-width:0.264583px;stroke-linecap:butt;stroke-linejoin:miter;stroke-opacity:1"
       d="m 54.90014,154.39338 -10.294688,-1.59812 10.591096,-0.56617 -9.353636,-4.34636 9.648269,3.17671 -5.837583,-7.44105 7.534026,7.61961 -0.04294,-8.71789 -1.362421,9.35897 7.55179,-2.32686 -6.851776,3.49829 4.614337,4.3964 -5.082202,-4.51426 -1.303494,9.12505 -1.621518,-9.36431 -7.203552,3.90723 8.373204,-3.61259 -8.126842,-3.29101 8.891115,1.24456 -7.246501,-4.81066 7.657213,4.1678 -1.857225,-8.42858 2.616164,9.36608 6.385686,-4.61079 -5.919605,5.72329 7.191122,3.0553 -7.542908,-2.64637 7.489314,-0.10364 -7.253607,-0.83208 3.464242,-6.83934 -5.276755,6.134 4.667942,7.14641 -4.903648,-6.21069 -5.689232,7.77151 6.507098,-7.06795 1.037584,8.71967 0.133842,-9.41968 5.448202,-3.85185 -5.682135,3.79293 -4.348132,10.34828 z"
       id="path1494"
       inkscape:connector-curvature="0" />
    <path
       inkscape:connector-curvature="0"
       id="path1496"
       d="m 67.803314,117.66948 -1.21397,-13.05021 3.945399,12.74667 2.42794,-12.74667 -0.910472,12.74667 7.28381,-9.40826 -6.980324,11.53273 10.622235,-2.73144 -11.836206,1.21395 5.159379,8.49785 -6.373348,-7.2839 -3.945398,6.98036 3.945398,-7.58734 -11.532706,1.21395 10.925721,-4.8558 -6.980323,-7.58733 6.980323,9.10472 1.517468,-10.92565 1.213971,11.22919 3.641908,-10.31878 -2.731436,10.62232 9.71176,-4.8559 -10.622232,6.06985 7.587306,6.37328 -8.801277,-5.46287 -1.517468,9.7118 0.910482,-10.01524 2.42794,9.10473 -1.213969,-9.10473 9.408263,2.12447 -9.104776,-4.55247 -7.283821,7.89088 6.069852,-7.89088 -11.22922,-4.55236 10.622234,5.76641 -10.318736,3.94539 11.532705,-2.73144 6.37335,5.46288 -6.37335,-5.76642 -13.960646,-2.12446 z"
       style="fill:#48bb4f;fill-opacity:1;stroke:none;stroke-width:0.332863px;stroke-linecap:butt;stroke-linejoin:miter;stroke-opacity:1" />
    <path
       style="fill:#48bb4f;fill-opacity:1;stroke:none;stroke-width:0.196303px;stroke-linecap:butt;stroke-linejoin:miter;stroke-opacity:1"
       d="m 67.283168,134.22547 -5.734362,-5.18278 6.799458,3.96114 -4.031747,-6.5042 4.690721,5.89871 -0.590934,-6.99202 1.570412,7.79348 3.52297,-5.42458 -4.655627,5.25001 5.631243,1.63159 -5.674026,-0.62001 1.071884,4.60556 -1.314083,-4.86915 -4.523861,5.12889 2.807055,-6.46829 -6.058724,-0.50961 6.664246,1.16863 -3.700581,-5.35016 5.007827,4.39207 -2.53576,-5.93421 3.052239,5.7027 2.279885,-5.98387 -2.19089,6.87434 5.837976,-0.25971 -6.00183,1.13952 3.216135,4.82292 -3.600857,-4.71255 4.687335,2.98512 -4.160152,-3.46951 4.933345,-2.83147 -5.770308,1.65602 -0.01458,6.33301 -0.512605,-5.84862 -6.692901,2.5037 6.913667,-1.73435 -2.906773,5.83068 3.918359,-5.78788 4.947465,-0.17074 -5.068534,0.039 -6.910295,4.64793 z"
       id="path1498"
       inkscape:connector-curvature="0" />
    <path
       inkscape:connector-curvature="0"
       id="path1500"
       d="m 92.402564,113.82256 4.053432,-11.65676 -1.594359,12.46284 7.055833,-9.97526 -5.755489,10.56757 9.913859,-5.21918 -10.483003,7.15813 10.168543,1.80537 -10.616521,-3.57954 1.104337,9.29567 -2.618449,-8.72924 -6.105441,4.44161 6.342366,-4.96175 -10.356467,-3.46121 11.257834,0.10342 -3.020141,-9.22626 2.427836,10.52659 5.564857,-8.77022 -3.342683,10.09644 7.148442,-7.4209 -6.486698,8.03633 10.217528,-0.37045 -11.471573,1.05535 4.014104,8.42288 -5.409757,-8.11651 -5.091014,7.72988 4.68934,-8.22691 -1.473207,8.74982 2.513481,-8.27598 7.232896,5.49275 -6.025162,-7.45481 -9.321584,3.91879 8.28131,-4.39262 -7.84569,-8.28399 6.851721,9.08735 -10.382321,-0.64668 10.948762,2.1608 3.329202,7.16885 -3.210752,-7.42892 -11.133961,-7.2696 z"
       style="fill:#48bb4f;fill-opacity:1;stroke:none;stroke-width:0.313436px;stroke-linecap:butt;stroke-linejoin:miter;stroke-opacity:1" />
    <path
       style="fill:#48bb4f;fill-opacity:1;stroke:none;stroke-width:0.264583px;stroke-linecap:butt;stroke-linejoin:miter;stroke-opacity:1"
       d="m 108.06686,111.58926 3.42169,-9.84005 -1.34587,10.52048 5.95615,-8.42056 -4.85846,8.92054 8.36877,-4.40571 -8.84922,6.04247 8.58376,1.52404 -8.96191,-3.02171 0.93222,7.84695 -2.21036,-7.36879 -5.15389,3.74938 5.35389,-4.18846 -8.74238,-2.92172 9.50326,0.0873 -2.54944,-7.78832 2.04946,8.886 4.69755,-7.40333 -2.82172,8.52284 6.03432,-6.26429 -5.47571,6.78382 8.62512,-0.3127 -9.68371,0.89085 3.38849,7.11017 -4.56663,-6.85154 -4.29756,6.52518 3.95849,-6.94472 -1.2436,7.38608 2.12174,-6.98609 6.10566,4.63665 -5.08615,-6.29295 -7.86878,3.30804 6.99063,-3.70802 -6.62291,-6.99291 5.78386,7.67106 -8.7642,-0.5459 9.24236,1.82403 2.81033,6.05158 -2.71034,-6.27112 -9.3987,-6.13658 z"
       id="path1502"
       inkscape:connector-curvature="0" />
    <path
       style="fill:#48bb4f;fill-opacity:1;stroke:none;stroke-width:0.313436px;stroke-linecap:butt;stroke-linejoin:miter;stroke-opacity:1"
       d="m 128.34696,132.15661 4.05343,-11.65676 -1.59436,12.46284 7.05583,-9.97526 -5.75549,10.56757 9.91386,-5.21918 -10.483,7.15813 10.16854,1.80537 -10.61652,-3.57954 1.10434,9.29567 -2.61845,-8.72924 -6.10544,4.44161 6.34237,-4.96175 -10.35647,-3.46121 11.25783,0.10342 -3.02014,-9.22626 2.42784,10.52659 5.56485,-8.77022 -3.34268,10.09644 7.14844,-7.4209 -6.48669,8.03633 10.21752,-0.37045 -11.47157,1.05535 4.0141,8.42288 -5.40975,-8.11651 -5.09102,7.72988 4.68934,-8.22691 -1.4732,8.74982 2.51348,-8.27598 7.23289,5.49275 -6.02516,-7.45481 -9.32158,3.91879 8.28131,-4.39262 -7.84569,-8.28399 6.85172,9.08735 -10.38232,-0.64668 10.94876,2.1608 3.3292,7.16885 -3.21075,-7.42892 -11.13396,-7.2696 z"
       id="path1504"
       inkscape:connector-curvature="0" />
    <path
       inkscape:connector-curvature="0"
       id="path1506"
       d="m 120.20275,123.44445 -7.89927,-0.85137 8.04809,-0.8079 -7.28003,-2.97841 7.46287,2.07689 -4.71155,-5.46097 6.01024,5.5367 -0.34263,-6.6397 -0.70515,7.1781 5.67018,-2.04113 -5.09527,2.90862 3.67148,3.18504 -4.03211,-3.25825 -0.6685,6.9978 -1.56819,-7.07605 -5.34867,3.23266 6.25018,-3.04984 -6.30796,-2.21811 6.81741,0.63203 -5.69134,-3.40708 5.98138,2.90269 -1.71448,-6.35479 2.32595,7.04201 4.70066,-3.73953 -4.30601,4.5705 5.58675,2.07183 -5.84024,-1.74786 5.7016,-0.34523 -5.5553,-0.37593 2.39586,-5.33335 -3.80169,4.86047 3.81009,5.27804 -3.95638,-4.55688 -4.0577,6.12255 4.70573,-5.61567 1.10047,6.60572 -0.23297,-7.18059 4.01347,-3.12801 -4.19378,3.0914 -2.94438,8.0379 z"
       style="fill:#48bb4f;fill-opacity:1;stroke:none;stroke-width:0.201778px;stroke-linecap:butt;stroke-linejoin:miter;stroke-opacity:1" />
  </g>
</svg>
