<?xml version="1.0" encoding="UTF-8" standalone="no"?>
<svg
   xmlns:osb="http://www.openswatchbook.org/uri/2009/osb"
   xmlns:dc="http://purl.org/dc/elements/1.1/"
   xmlns:cc="http://creativecommons.org/ns#"
   xmlns:rdf="http://www.w3.org/1999/02/22-rdf-syntax-ns#"
   xmlns:svg="http://www.w3.org/2000/svg"
   xmlns="http://www.w3.org/2000/svg"
   xmlns:xlink="http://www.w3.org/1999/xlink"
   xmlns:sodipodi="http://sodipodi.sourceforge.net/DTD/sodipodi-0.dtd"
   xmlns:inkscape="http://www.inkscape.org/namespaces/inkscape"
   sodipodi:docname="poppy.svg"
   inkscape:version="1.0beta2 (2b71d25, 2019-12-03)"
   id="svg8"
   version="1.1"
   viewBox="0 0 156.35637 100.60839"
   height="100.60839mm"
   width="156.35637mm">
  <defs
     id="defs2">
    <inkscape:path-effect
       hide_knot="false"
       vertical="false"
       scale_y_rel="false"
       prop_scale="1.0053694"
       bendpath="m 93.115181,104.20482 h 1.216157"
       lpeversion="1"
       is_visible="true"
       id="path-effect1088"
       effect="bend_path" />
    <inkscape:path-effect
       effect="bend_path"
       id="path-effect1032"
       is_visible="true"
       lpeversion="1"
       bendpath="m 79.789726,177.90952 c 12.910789,-3.1531 22.708724,-7.70182 59.830754,0"
       prop_scale="1"
       scale_y_rel="false"
       vertical="false"
       hide_knot="false"
       bendpath-nodetypes="cc" />
    <inkscape:path-effect
       bendpath-nodetypes="cc"
       hide_knot="false"
       vertical="false"
       scale_y_rel="false"
       prop_scale="1"
       bendpath="m 79.789726,177.90952 c 12.910789,-3.1531 22.708724,-7.70182 59.830754,0"
       lpeversion="1"
       is_visible="true"
       id="path-effect998"
       effect="bend_path" />
    <linearGradient
       osb:paint="solid"
       id="linearGradient929">
      <stop
         id="stop927"
         offset="0"
         style="stop-color:#000000;stop-opacity:1;" />
    </linearGradient>
    <linearGradient
       id="linearGradient847"
       inkscape:collect="always">
      <stop
         id="stop843"
         offset="0"
         style="stop-color:#ffef00;stop-opacity:1;" />
      <stop
         id="stop845"
         offset="1"
         style="stop-color:#ffef00;stop-opacity:0;" />
    </linearGradient>
    <linearGradient
       gradientUnits="userSpaceOnUse"
       y2="54.963898"
       x2="94.000374"
       y1="75.654823"
       x1="94.021866"
       id="linearGradient939"
       xlink:href="#linearGradient847"
       inkscape:collect="always" />
    <linearGradient
       y2="54.963898"
       x2="94.000374"
       y1="75.654823"
       x1="94.021866"
       gradientUnits="userSpaceOnUse"
       id="linearGradient1050"
       xlink:href="#linearGradient847"
       inkscape:collect="always" />
    <linearGradient
       y2="54.963898"
       x2="94.000374"
       y1="75.654823"
       x1="94.021866"
       gradientUnits="userSpaceOnUse"
       id="linearGradient1052"
       xlink:href="#linearGradient847"
       inkscape:collect="always" />
    <linearGradient
       y2="54.963898"
       x2="94.000374"
       y1="75.654823"
       x1="94.021866"
       gradientUnits="userSpaceOnUse"
       id="linearGradient1054"
       xlink:href="#linearGradient847"
       inkscape:collect="always" />
    <linearGradient
       y2="54.963898"
       x2="94.000374"
       y1="75.654823"
       x1="94.021866"
       gradientUnits="userSpaceOnUse"
       id="linearGradient1056"
       xlink:href="#linearGradient847"
       inkscape:collect="always" />
    <linearGradient
       y2="54.963898"
       x2="94.000374"
       y1="75.654823"
       x1="94.021866"
       gradientUnits="userSpaceOnUse"
       id="linearGradient1058"
       xlink:href="#linearGradient847"
       inkscape:collect="always" />
    <linearGradient
       y2="54.963898"
       x2="94.000374"
       y1="75.654823"
       x1="94.021866"
       gradientUnits="userSpaceOnUse"
       id="linearGradient1072"
       xlink:href="#linearGradient847"
       inkscape:collect="always" />
    <linearGradient
       y2="54.963898"
       x2="94.000374"
       y1="75.654823"
       x1="94.021866"
       gradientUnits="userSpaceOnUse"
       id="linearGradient1074"
       xlink:href="#linearGradient847"
       inkscape:collect="always" />
    <linearGradient
       y2="54.963898"
       x2="94.000374"
       y1="75.654823"
       x1="94.021866"
       gradientUnits="userSpaceOnUse"
       id="linearGradient1076"
       xlink:href="#linearGradient847"
       inkscape:collect="always" />
    <linearGradient
       y2="54.963898"
       x2="94.000374"
       y1="75.654823"
       x1="94.021866"
       gradientUnits="userSpaceOnUse"
       id="linearGradient1078"
       xlink:href="#linearGradient847"
       inkscape:collect="always" />
    <linearGradient
       y2="54.963898"
       x2="94.000374"
       y1="75.654823"
       x1="94.021866"
       gradientUnits="userSpaceOnUse"
       id="linearGradient1080"
       xlink:href="#linearGradient847"
       inkscape:collect="always" />
    <linearGradient
       y2="54.963898"
       x2="94.000374"
       y1="75.654823"
       x1="94.021866"
       gradientUnits="userSpaceOnUse"
       id="linearGradient1082"
       xlink:href="#linearGradient847"
       inkscape:collect="always" />
  </defs>
  <sodipodi:namedview
     inkscape:window-maximized="0"
     inkscape:window-y="23"
     inkscape:window-x="0"
     inkscape:window-height="755"
     inkscape:window-width="1280"
     inkscape:snap-bbox="false"
     inkscape:object-paths="true"
     inkscape:snap-nodes="false"
     inkscape:object-nodes="false"
     inkscape:snap-others="false"
     showgrid="false"
     inkscape:document-rotation="0"
     inkscape:current-layer="layer1"
     inkscape:document-units="mm"
     inkscape:cy="384.86856"
     inkscape:cx="109.33309"
     inkscape:zoom="0.52716946"
     inkscape:pageshadow="2"
     inkscape:pageopacity="0.0"
     borderopacity="1.0"
     bordercolor="#666666"
     pagecolor="#ffffff"
     id="base" />
  <metadata
     id="metadata5">
    <rdf:RDF>
      <cc:Work
         rdf:about="">
        <dc:format>image/svg+xml</dc:format>
        <dc:type
           rdf:resource="http://purl.org/dc/dcmitype/StillImage" />
        <dc:title></dc:title>
      </cc:Work>
    </rdf:RDF>
  </metadata>
  <g
     transform="translate(-15.641539,-45.251341)"
     id="layer1"
     inkscape:groupmode="layer"
     inkscape:label="Layer 1">
    <g
       transform="rotate(23.068775,127.73001,131.85691)"
       style="fill:url(#linearGradient939);fill-opacity:1;fill-rule:evenodd"
       id="g893">
      <g
         style="fill:url(#linearGradient1056);fill-opacity:1;fill-rule:evenodd"
         id="g866">
        <path
           sodipodi:nodetypes="cccccccccccc"
           inkscape:connector-curvature="0"
           id="path857"
           d="M 99.35112,75.662419 100.05825,61.51991 C 95.426759,59.682203 91.195913,59.647399 87.506769,62.050255 L 88.390676,75.8392 82.910454,59.221753 c 0.201442,0.476415 -0.446791,-5.098893 5.833785,-2.121376 6.729889,-4.550619 11.127298,-0.937556 16.087101,0.707125 L 99.35112,75.485637 88.346027,75.707068 87.45501,62.153875 c 4.694157,-2.910834 8.658882,-2.088546 12.65697,-0.648947 z"
           style="fill:url(#linearGradient1050);fill-opacity:1;fill-rule:evenodd;stroke:#000000;stroke-width:0.264583px;stroke-linecap:butt;stroke-linejoin:miter;stroke-opacity:1" />
        <path
           inkscape:connector-curvature="0"
           id="path859"
           d="m 82.955575,59.184036 c -0.359163,1.577438 4.56228,3.030308 4.56228,3.030308"
           style="fill:url(#linearGradient1052);fill-opacity:1;fill-rule:evenodd;stroke:#000000;stroke-width:0.264583px;stroke-linecap:butt;stroke-linejoin:miter;stroke-opacity:1"
           sodipodi:nodetypes="cc" />
        <path
           inkscape:connector-curvature="0"
           id="path861"
           d="m 100.11198,61.504928 c 1.98023,-3.847387 4.34393,-3.566937 4.74985,-3.709909"
           style="fill:url(#linearGradient1054);fill-opacity:1;fill-rule:evenodd;stroke:#000000;stroke-width:0.264583px;stroke-linecap:butt;stroke-linejoin:miter;stroke-opacity:1"
           sodipodi:nodetypes="cc" />
      </g>
      <path
         style="fill:url(#linearGradient1058);fill-opacity:1;fill-rule:evenodd;stroke:#000000;stroke-width:0.264583px;stroke-linecap:butt;stroke-linejoin:miter;stroke-opacity:1"
         d="m 88.760458,57.08942 0.609698,3.970322"
         id="path868"
         inkscape:connector-curvature="0" />
    </g>
    <g
       inkscape:path-effect="#path-effect998"
       transform="rotate(26.324125,262.60767,175.75324)"
       id="g970">
      <path
         inkscape:original-d="m 90.949571,190.01747 -10.990859,-12.6475 c -0.734165,-1.4342 0.183727,-1.21634 0.969274,-1.13082 l 9.21386,10.8705 -5.169456,-17.60845 c 0.04223,-1.60492 0.526247,-1.97281 1.615453,-0.64618 l 6.427007,21.50783 1.930751,-17.40974 c 1.349444,-1.85634 1.848125,-0.4749 1.990768,0.48463 l -2.432796,20.61837 2.100092,8.72345 -1.777001,0.32309 z"
         style="fill:#1fb800;fill-opacity:1;stroke:#1fb800;stroke-width:0.264583px;stroke-linecap:butt;stroke-linejoin:miter;stroke-opacity:1"
         d="m 93.281301,187.11877 c -4.100764,-3.41908 -8.853253,-6.56058 -13.453634,-9.77403 -1.062032,-1.21648 -0.110171,-1.22502 0.680402,-1.33306 3.881239,2.77244 7.855955,5.5116 11.438144,8.42496 -2.825724,-5.3825 -5.934236,-10.68561 -9.071696,-15.96707 -0.341256,-1.56719 0.0562,-2.05319 1.484416,-1.02568 3.871994,6.45556 7.626286,12.96606 10.783732,19.64134 -0.5243,-5.80076 -0.9309,-11.61171 -1.184184,-17.43598 1.158292,-2.10446 1.927945,-0.72219 2.194768,0.1615 0.04565,6.91069 0.356633,13.79994 0.865964,20.67346 1.039055,2.76235 1.988381,5.54706 2.827179,8.35847 -0.35538,0.15788 -0.72104,0.32517 -1.097668,0.50094 -1.571333,-4.14067 -3.429172,-8.20755 -5.467423,-12.22485 z"
         id="path941"
         inkscape:connector-curvature="0"
         sodipodi:nodetypes="ccccccccccccc" />
      <path
         inkscape:original-d="m 85.058182,224.68289 31.753898,-75.53579 2.5472,1.44336 -32.125837,75.86334 z"
         style="fill:#1fb800;fill-opacity:1;stroke:#1fb800;stroke-width:0.264583px;stroke-linecap:butt;stroke-linejoin:miter;stroke-opacity:1"
         d="m 96.169737,222.1068 c 1.571127,-13.27101 1.54212,-26.2802 5.065233,-38.94439 3.95668,-13.02661 10.51639,-25.53621 18.31686,-37.59409 1.00089,0.57061 1.98319,1.15014 2.9481,1.73768 -9.11421,13.72535 -16.74838,28.03156 -20.79686,43.02172 -2.402943,10.74765 -2.429294,21.78454 -3.352669,33.05448 -0.680951,-0.43451 -1.409286,-0.85882 -2.180664,-1.2754 z"
         id="path951"
         inkscape:connector-curvature="0"
         sodipodi:nodetypes="ccccc" />
      <path
         inkscape:original-d="m 110.90183,191.22882 11.80487,-11.89131 c 1.37631,-0.83767 1.22655,0.0938 1.19904,0.88347 l -10.16338,9.98843 17.18055,-6.45055 c 1.60368,-0.076 2.00617,0.37972 0.76324,1.56355 l -20.97687,7.99149 17.50459,0.64505 c 1.95057,1.20925 0.60955,1.80819 -0.33689,2.02101 l -20.74146,-0.90972 -8.545356,2.73601 -0.45291,-1.74843 z"
         sodipodi:nodetypes="ccccccccccccc"
         inkscape:connector-curvature="0"
         id="path953"
         d="m 110.24346,187.03312 c 3.6522,-3.78587 7.82685,-7.34555 12.28898,-10.73414 1.49278,-0.64403 1.20605,0.27514 1.06618,1.04597 -3.83609,2.80964 -7.47186,5.74055 -10.7609,8.8282 5.31513,-1.75556 11.10187,-3.0821 17.07646,-4.19056 1.59256,0.21053 1.87562,0.73722 0.46059,1.67797 -7.2729,1.3783 -14.24422,3.06487 -20.39047,5.443 5.02462,0.44555 10.2174,1.36248 15.58227,2.49933 1.60697,1.50811 0.24532,1.88284 -0.64654,1.94545 -6.27354,-1.3753 -12.27028,-2.43948 -18.0054,-2.77335 -1.75908,0.66558 -3.44241,1.40015 -5.03767,2.21452 -0.44958,0.24507 -0.90373,0.50697 -1.36455,0.78398 -0.16156,-0.56931 -0.32833,-1.1373 -0.50012,-1.70401 0.58124,-0.39628 1.15687,-0.77176 1.73117,-1.12346 2.61432,-1.49356 5.46706,-2.78355 8.5,-3.9129 z"
         style="fill:#1fb800;fill-opacity:1;stroke:#1fb800;stroke-width:0.264583px;stroke-linecap:butt;stroke-linejoin:miter;stroke-opacity:1" />
      <path
         inkscape:original-d="m 122.24199,161.33341 9.48061,-9.55003 c 1.10533,-0.67274 0.98505,0.0753 0.96296,0.70952 l -8.16231,8.02181 13.79787,-5.1805 c 1.28793,-0.061 1.61118,0.30496 0.61297,1.25571 l -16.84674,6.41804 14.05811,0.51805 c 1.56653,0.97116 0.48954,1.45217 -0.27056,1.62309 l -16.65767,-0.7306 -6.86287,2.19731 -0.36374,-1.40418 z"
         style="fill:#1fb800;fill-opacity:1;stroke:#1fb800;stroke-width:0.212489px;stroke-linecap:butt;stroke-linejoin:miter;stroke-opacity:1"
         d="m 124.48755,158.36975 c 3.93588,-2.7011 7.98705,-5.28333 12.03179,-7.77525 1.33368,-0.43678 1.06161,0.28026 0.9204,0.89834 -3.45182,2.06776 -6.91433,4.1994 -10.31169,6.4133 5.32943,-0.97424 10.62441,-1.73627 15.73795,-2.39533 1.34705,0.22972 1.60027,0.66176 0.38027,1.36863 -6.21498,0.83213 -12.68993,1.80922 -19.15369,3.12981 5.13281,0.84103 10.09742,1.90664 14.89589,3.06657 1.42506,1.28512 0.21878,1.52883 -0.59622,1.53785 -5.66215,-1.40029 -11.53856,-2.66714 -17.63707,-3.58343 -2.60735,0.45012 -5.21134,0.96235 -7.79635,1.55036 -0.10758,-0.47386 -0.21678,-0.94756 -0.32763,-1.42109 3.9168,-1.08696 7.88915,-2.00195 11.85635,-2.78976 z"
         id="path955"
         inkscape:connector-curvature="0"
         sodipodi:nodetypes="ccccccccccccc" />
      <path
         inkscape:original-d="m 106.52963,160.02522 -7.242631,-8.33431 c -0.483792,-0.94509 0.12107,-0.80153 0.638722,-0.74517 l 6.071639,7.16332 -3.4065,-11.60342 c 0.0278,-1.05759 0.34678,-1.30002 1.06453,-0.42581 l 4.2352,14.17298 1.2723,-11.47247 c 0.88924,-1.22327 1.21785,-0.31294 1.31185,0.31936 l -1.60313,13.58685 1.38389,5.74848 -1.17099,0.21291 z"
         sodipodi:nodetypes="ccccccccccccc"
         inkscape:connector-curvature="0"
         id="path957"
         d="m 106.43218,155.81522 c -2.2954,-2.20056 -4.75321,-4.34098 -7.402485,-6.40972 -0.786703,-0.51017 -1.57937,-1.01173 -2.375933,-1.50559 -0.802321,-0.86018 0.0955,-0.8181 0.89006,-0.84108 0.465327,0.29554 0.929138,0.59375 1.391026,0.89481 2.437662,1.92707 4.712732,3.91332 6.847442,5.95006 -1.41035,-3.85527 -2.974,-7.68991 -4.70929,-11.50036 -0.008,-1.0491 0.42872,-1.32076 1.45047,-0.46375 2.08922,4.6719 3.92276,9.37979 5.53523,14.11689 0.56215,-3.80637 1.17304,-7.609 1.83011,-11.40775 1.19692,-1.19707 1.59099,-0.25309 1.68477,0.37196 -0.87054,4.48906 -1.67497,8.98429 -2.40846,13.48543 0.48873,1.92365 0.94947,3.85017 1.38372,5.77928 -0.43245,0.0547 -0.86474,0.11176 -1.29684,0.17117 -0.86118,-2.89075 -1.79857,-5.7717 -2.81982,-8.64135 z"
         style="fill:#1fb800;fill-opacity:1;stroke:#1fb800;stroke-width:0.174352px;stroke-linecap:butt;stroke-linejoin:miter;stroke-opacity:1" />
      <path
         inkscape:original-d="m 116.74983,144.10363 -3.40288,-10.50414 c -0.0753,-1.05904 0.42513,-0.6902 0.87942,-0.43573 l 2.78362,8.96824 1.40672,-12.01102 c 0.43952,-0.96234 0.82793,-1.06058 1.14627,0.0248 l -1.64984,14.69994 5.66102,-10.05928 c 1.29708,-0.77765 1.24318,0.18868 1.0822,0.80733 l -6.79301,11.8755 -0.97641,5.83153 -1.1609,-0.26239 z"
         style="fill:#1fb800;fill-opacity:1;stroke:#1fb800;stroke-width:0.174352px;stroke-linecap:butt;stroke-linejoin:miter;stroke-opacity:1"
         d="m 119.95552,140.54404 c -1.11067,-3.60791 -2.33372,-7.20347 -3.6857,-10.78328 -0.0344,-1.06132 0.64428,-0.65297 1.25751,-0.35851 1.06801,3.06048 2.04851,6.13089 2.95095,9.20935 0.99262,-3.92977 2.02572,-7.85438 3.09605,-11.77366 0.70216,-0.89982 1.24596,-0.94318 1.54776,0.17956 -1.30941,4.79188 -2.56768,9.59134 -3.7693,14.39807 2.72021,-3.10869 5.53273,-6.16402 8.39244,-9.17027 1.74805,-0.5521 1.53091,0.40216 1.23855,0.98688 -3.40637,3.52425 -6.75394,7.11718 -9.96601,10.78632 -0.60448,1.89456 -1.19601,3.79127 -1.77383,5.69008 -0.45591,-0.12854 -0.91423,-0.2552 -1.375,-0.37991 0.67239,-2.93091 1.36835,-5.85914 2.08658,-8.78463 z"
         id="path959"
         inkscape:connector-curvature="0"
         sodipodi:nodetypes="ccccccccccccc" />
      <path
         inkscape:original-d="m 122.3879,145.84676 3.84771,-10.34947 c 0.59796,-0.87732 0.76162,-0.27758 0.96005,0.20383 l -3.38055,8.76069 8.55472,-8.54752 c 0.94173,-0.48209 1.30731,-0.31818 0.88363,0.73057 l -10.41356,10.50562 10.68054,-4.37748 c 1.49974,0.19477 0.85797,0.91923 0.34791,1.30456 l -12.6951,5.09968 -4.38358,3.96791 -0.74771,-0.92599 z"
         sodipodi:nodetypes="ccccccccccccc"
         inkscape:connector-curvature="0"
         id="path961"
         d="m 126.74358,143.02457 c 2.01476,-3.22528 4.09019,-6.42561 6.20498,-9.60167 0.8714,-0.7575 0.97563,-0.12941 1.13759,0.3836 -1.84047,2.67236 -3.65508,5.36294 -5.42988,8.07225 3.83765,-2.35428 7.70028,-4.61097 11.49916,-6.79109 1.16991,-0.26776 1.54978,-0.0222 0.87242,0.9159 -4.59485,2.67254 -9.28854,5.45485 -13.91956,8.38471 4.45537,-0.88957 8.83576,-1.63644 13.06723,-2.29075 1.62999,0.52139 0.77464,1.09385 0.13872,1.36088 -4.99213,0.74177 -10.18875,1.61063 -15.46798,2.69102 -1.9166,1.10347 -3.82161,2.2338 -5.70419,3.39391 -0.27005,-0.33363 -0.54259,-0.66655 -0.81767,-0.99874 2.75989,-1.90139 5.57842,-3.73855 8.41918,-5.52002 z"
         style="fill:#1fb800;fill-opacity:1;stroke:#1fb800;stroke-width:0.174352px;stroke-linecap:butt;stroke-linejoin:miter;stroke-opacity:1" />
    </g>
    <g
       id="g986"
       transform="matrix(0.51278669,-0.53709933,0.4673622,0.55834959,-55.623718,65.156855)">
      <path
         sodipodi:nodetypes="ccccccccccccc"
         inkscape:connector-curvature="0"
         id="path972"
         d="m 91.049571,190.01747 -10.990859,-12.6475 c -0.734165,-1.4342 0.183727,-1.21634 0.969274,-1.13082 l 9.21386,10.8705 -5.169456,-17.60845 c 0.04223,-1.60492 0.526247,-1.97281 1.615453,-0.64618 l 6.427007,21.50783 1.930751,-17.40974 c 1.349443,-1.85634 1.848124,-0.4749 1.990767,0.48463 l -2.432795,20.61837 2.100091,8.72345 -1.777,0.32309 z"
         style="fill:#1fb800;fill-opacity:1;stroke:#1fb800;stroke-width:0.264583px;stroke-linecap:butt;stroke-linejoin:miter;stroke-opacity:1" />
      <path
         sodipodi:nodetypes="ccccc"
         inkscape:connector-curvature="0"
         id="path974"
         d="m 85.158182,224.68289 31.753898,-75.53579 2.5472,1.44336 -32.125837,75.86334 z"
         style="fill:#1fb800;fill-opacity:1;stroke:#1fb800;stroke-width:0.264583px;stroke-linecap:butt;stroke-linejoin:miter;stroke-opacity:1" />
      <path
         style="fill:#1fb800;fill-opacity:1;stroke:#1fb800;stroke-width:0.264583px;stroke-linecap:butt;stroke-linejoin:miter;stroke-opacity:1"
         d="m 111.00183,191.22882 11.80487,-11.89131 c 1.37631,-0.83767 1.22655,0.0938 1.19904,0.88347 l -10.16338,9.98843 17.18055,-6.45055 c 1.60368,-0.076 2.00617,0.37972 0.76324,1.56355 l -20.97687,7.99149 17.50459,0.64505 c 1.95057,1.20925 0.60955,1.80819 -0.33689,2.02101 l -20.74146,-0.90972 -8.545357,2.73601 -0.45291,-1.74843 z"
         id="path976"
         inkscape:connector-curvature="0"
         sodipodi:nodetypes="ccccccccccccc" />
      <path
         sodipodi:nodetypes="ccccccccccccc"
         inkscape:connector-curvature="0"
         id="path978"
         d="m 122.34199,161.33341 9.48061,-9.55003 c 1.10533,-0.67274 0.98505,0.0753 0.96296,0.70952 l -8.16231,8.02181 13.79787,-5.1805 c 1.28793,-0.061 1.61118,0.30496 0.61297,1.25571 l -16.84674,6.41804 14.05811,0.51805 c 1.56653,0.97116 0.48954,1.45217 -0.27056,1.62309 l -16.65767,-0.7306 -6.86287,2.19731 -0.36374,-1.40418 z"
         style="fill:#1fb800;fill-opacity:1;stroke:#1fb800;stroke-width:0.212489px;stroke-linecap:butt;stroke-linejoin:miter;stroke-opacity:1" />
      <path
         style="fill:#1fb800;fill-opacity:1;stroke:#1fb800;stroke-width:0.174352px;stroke-linecap:butt;stroke-linejoin:miter;stroke-opacity:1"
         d="m 106.62963,160.02522 -7.242632,-8.33431 c -0.483792,-0.94509 0.12107,-0.80153 0.638722,-0.74517 l 6.07164,7.16332 -3.4065,-11.60342 c 0.0278,-1.05759 0.34678,-1.30002 1.06453,-0.42581 l 4.2352,14.17298 1.2723,-11.47247 c 0.88924,-1.22327 1.21785,-0.31294 1.31185,0.31936 l -1.60313,13.58685 1.38389,5.74848 -1.17099,0.21291 z"
         id="path980"
         inkscape:connector-curvature="0"
         sodipodi:nodetypes="ccccccccccccc" />
      <path
         sodipodi:nodetypes="ccccccccccccc"
         inkscape:connector-curvature="0"
         id="path982"
         d="m 116.84983,144.10363 -3.40288,-10.50414 c -0.0753,-1.05904 0.42513,-0.6902 0.87942,-0.43573 l 2.78362,8.96824 1.40672,-12.01102 c 0.43952,-0.96234 0.82793,-1.06058 1.14627,0.0248 l -1.64984,14.69994 5.66102,-10.05928 c 1.29708,-0.77765 1.24318,0.18868 1.0822,0.80733 l -6.79301,11.8755 -0.97641,5.83153 -1.1609,-0.26239 z"
         style="fill:#1fb800;fill-opacity:1;stroke:#1fb800;stroke-width:0.174352px;stroke-linecap:butt;stroke-linejoin:miter;stroke-opacity:1" />
      <path
         style="fill:#1fb800;fill-opacity:1;stroke:#1fb800;stroke-width:0.174352px;stroke-linecap:butt;stroke-linejoin:miter;stroke-opacity:1"
         d="m 122.4879,145.84676 3.84771,-10.34947 c 0.59796,-0.87732 0.76162,-0.27758 0.96005,0.20383 l -3.38055,8.76069 8.55472,-8.54752 c 0.94173,-0.48209 1.30731,-0.31818 0.88363,0.73057 l -10.41356,10.50562 10.68054,-4.37748 c 1.49974,0.19477 0.85797,0.91923 0.34791,1.30456 l -12.6951,5.09968 -4.38358,3.96791 -0.74771,-0.92599 z"
         id="path984"
         inkscape:connector-curvature="0"
         sodipodi:nodetypes="ccccccccccccc" />
    </g>
    <g
       id="g1030"
       transform="matrix(-0.89629979,0.44344863,0.44344863,0.89629979,82.469449,-98.227367)"
       inkscape:path-effect="#path-effect1032">
      <path
         sodipodi:nodetypes="ccccccccccccc"
         inkscape:connector-curvature="0"
         id="path1016"
         d="m 93.281301,187.11877 c -4.100764,-3.41908 -8.853253,-6.56058 -13.453634,-9.77403 -1.062032,-1.21648 -0.110171,-1.22502 0.680402,-1.33306 3.881239,2.77244 7.855955,5.5116 11.438144,8.42496 -2.825724,-5.3825 -5.934236,-10.68561 -9.071696,-15.96707 -0.341256,-1.56719 0.0562,-2.05319 1.484416,-1.02568 3.871994,6.45556 7.626286,12.96606 10.783732,19.64134 -0.5243,-5.80076 -0.9309,-11.61171 -1.184184,-17.43598 1.158292,-2.10446 1.927945,-0.72219 2.194768,0.1615 0.04565,6.91069 0.356633,13.79994 0.865964,20.67346 1.039055,2.76235 1.988381,5.54706 2.827179,8.35847 -0.35538,0.15788 -0.72104,0.32517 -1.097668,0.50094 -1.571333,-4.14067 -3.429172,-8.20755 -5.467423,-12.22485 z"
         style="fill:#1fb800;fill-opacity:1;stroke:#1fb800;stroke-width:0.264583px;stroke-linecap:butt;stroke-linejoin:miter;stroke-opacity:1"
         inkscape:original-d="m 90.949571,190.01747 -10.990859,-12.6475 c -0.734165,-1.4342 0.183727,-1.21634 0.969274,-1.13082 l 9.21386,10.8705 -5.169456,-17.60845 c 0.04223,-1.60492 0.526247,-1.97281 1.615453,-0.64618 l 6.427007,21.50783 1.930751,-17.40974 c 1.349444,-1.85634 1.848125,-0.4749 1.990768,0.48463 l -2.432796,20.61837 2.100092,8.72345 -1.777001,0.32309 z" />
      <path
         sodipodi:nodetypes="ccccc"
         inkscape:connector-curvature="0"
         id="path1018"
         d="m 96.169737,222.1068 c 1.571127,-13.27101 1.54212,-26.2802 5.065233,-38.94439 3.95668,-13.02661 10.51639,-25.53621 18.31686,-37.59409 1.00089,0.57061 1.98319,1.15014 2.9481,1.73768 -9.11421,13.72535 -16.74838,28.03156 -20.79686,43.02172 -2.402943,10.74765 -2.429294,21.78454 -3.352669,33.05448 -0.680951,-0.43451 -1.409286,-0.85882 -2.180664,-1.2754 z"
         style="fill:#1fb800;fill-opacity:1;stroke:#1fb800;stroke-width:0.264583px;stroke-linecap:butt;stroke-linejoin:miter;stroke-opacity:1"
         inkscape:original-d="m 85.058182,224.68289 31.753898,-75.53579 2.5472,1.44336 -32.125837,75.86334 z" />
      <path
         style="fill:#1fb800;fill-opacity:1;stroke:#1fb800;stroke-width:0.264583px;stroke-linecap:butt;stroke-linejoin:miter;stroke-opacity:1"
         d="m 110.24346,187.03312 c 3.6522,-3.78587 7.82685,-7.34555 12.28898,-10.73414 1.49278,-0.64403 1.20605,0.27514 1.06618,1.04597 -3.83609,2.80964 -7.47186,5.74055 -10.7609,8.8282 5.31513,-1.75556 11.10187,-3.0821 17.07646,-4.19056 1.59256,0.21053 1.87562,0.73722 0.46059,1.67797 -7.2729,1.3783 -14.24422,3.06487 -20.39047,5.443 5.02462,0.44555 10.2174,1.36248 15.58227,2.49933 1.60697,1.50811 0.24532,1.88284 -0.64654,1.94545 -6.27354,-1.3753 -12.27028,-2.43948 -18.0054,-2.77335 -1.75908,0.66558 -3.44241,1.40015 -5.03767,2.21452 -0.44958,0.24507 -0.90373,0.50697 -1.36455,0.78398 -0.16156,-0.56931 -0.32833,-1.1373 -0.50012,-1.70401 0.58124,-0.39628 1.15687,-0.77176 1.73117,-1.12346 2.61432,-1.49356 5.46706,-2.78355 8.5,-3.9129 z"
         id="path1020"
         inkscape:connector-curvature="0"
         sodipodi:nodetypes="ccccccccccccc"
         inkscape:original-d="m 110.90183,191.22882 11.80487,-11.89131 c 1.37631,-0.83767 1.22655,0.0938 1.19904,0.88347 l -10.16338,9.98843 17.18055,-6.45055 c 1.60368,-0.076 2.00617,0.37972 0.76324,1.56355 l -20.97687,7.99149 17.50459,0.64505 c 1.95057,1.20925 0.60955,1.80819 -0.33689,2.02101 l -20.74146,-0.90972 -8.545356,2.73601 -0.45291,-1.74843 z" />
      <path
         sodipodi:nodetypes="ccccccccccccc"
         inkscape:connector-curvature="0"
         id="path1022"
         d="m 124.48755,158.36975 c 3.93588,-2.7011 7.98705,-5.28333 12.03179,-7.77525 1.33368,-0.43678 1.06161,0.28026 0.9204,0.89834 -3.45182,2.06776 -6.91433,4.1994 -10.31169,6.4133 5.32943,-0.97424 10.62441,-1.73627 15.73795,-2.39533 1.34705,0.22972 1.60027,0.66176 0.38027,1.36863 -6.21498,0.83213 -12.68993,1.80922 -19.15369,3.12981 5.13281,0.84103 10.09742,1.90664 14.89589,3.06657 1.42506,1.28512 0.21878,1.52883 -0.59622,1.53785 -5.66215,-1.40029 -11.53856,-2.66714 -17.63707,-3.58343 -2.60735,0.45012 -5.21134,0.96235 -7.79635,1.55036 -0.10758,-0.47386 -0.21678,-0.94756 -0.32763,-1.42109 3.9168,-1.08696 7.88915,-2.00195 11.85635,-2.78976 z"
         style="fill:#1fb800;fill-opacity:1;stroke:#1fb800;stroke-width:0.212489px;stroke-linecap:butt;stroke-linejoin:miter;stroke-opacity:1"
         inkscape:original-d="m 122.24199,161.33341 9.48061,-9.55003 c 1.10533,-0.67274 0.98505,0.0753 0.96296,0.70952 l -8.16231,8.02181 13.79787,-5.1805 c 1.28793,-0.061 1.61118,0.30496 0.61297,1.25571 l -16.84674,6.41804 14.05811,0.51805 c 1.56653,0.97116 0.48954,1.45217 -0.27056,1.62309 l -16.65767,-0.7306 -6.86287,2.19731 -0.36374,-1.40418 z" />
      <path
         style="fill:#1fb800;fill-opacity:1;stroke:#1fb800;stroke-width:0.174352px;stroke-linecap:butt;stroke-linejoin:miter;stroke-opacity:1"
         d="m 106.43218,155.81522 c -2.2954,-2.20056 -4.75321,-4.34098 -7.402485,-6.40972 -0.786703,-0.51017 -1.57937,-1.01173 -2.375933,-1.50559 -0.802321,-0.86018 0.0955,-0.8181 0.89006,-0.84108 0.465327,0.29554 0.929138,0.59375 1.391026,0.89481 2.437662,1.92707 4.712732,3.91332 6.847442,5.95006 -1.41035,-3.85527 -2.974,-7.68991 -4.70929,-11.50036 -0.008,-1.0491 0.42872,-1.32076 1.45047,-0.46375 2.08922,4.6719 3.92276,9.37979 5.53523,14.11689 0.56215,-3.80637 1.17304,-7.609 1.83011,-11.40775 1.19692,-1.19707 1.59099,-0.25309 1.68477,0.37196 -0.87054,4.48906 -1.67497,8.98429 -2.40846,13.48543 0.48873,1.92365 0.94947,3.85017 1.38372,5.77928 -0.43245,0.0547 -0.86474,0.11176 -1.29684,0.17117 -0.86118,-2.89075 -1.79857,-5.7717 -2.81982,-8.64135 z"
         id="path1024"
         inkscape:connector-curvature="0"
         sodipodi:nodetypes="ccccccccccccc"
         inkscape:original-d="m 106.52963,160.02522 -7.242631,-8.33431 c -0.483792,-0.94509 0.12107,-0.80153 0.638722,-0.74517 l 6.071639,7.16332 -3.4065,-11.60342 c 0.0278,-1.05759 0.34678,-1.30002 1.06453,-0.42581 l 4.2352,14.17298 1.2723,-11.47247 c 0.88924,-1.22327 1.21785,-0.31294 1.31185,0.31936 l -1.60313,13.58685 1.38389,5.74848 -1.17099,0.21291 z" />
      <path
         sodipodi:nodetypes="ccccccccccccc"
         inkscape:connector-curvature="0"
         id="path1026"
         d="m 119.95552,140.54404 c -1.11067,-3.60791 -2.33372,-7.20347 -3.6857,-10.78328 -0.0344,-1.06132 0.64428,-0.65297 1.25751,-0.35851 1.06801,3.06048 2.04851,6.13089 2.95095,9.20935 0.99262,-3.92977 2.02572,-7.85438 3.09605,-11.77366 0.70216,-0.89982 1.24596,-0.94318 1.54776,0.17956 -1.30941,4.79188 -2.56768,9.59134 -3.7693,14.39807 2.72021,-3.10869 5.53273,-6.16402 8.39244,-9.17027 1.74805,-0.5521 1.53091,0.40216 1.23855,0.98688 -3.40637,3.52425 -6.75394,7.11718 -9.96601,10.78632 -0.60448,1.89456 -1.19601,3.79127 -1.77383,5.69008 -0.45591,-0.12854 -0.91423,-0.2552 -1.375,-0.37991 0.67239,-2.93091 1.36835,-5.85914 2.08658,-8.78463 z"
         style="fill:#1fb800;fill-opacity:1;stroke:#1fb800;stroke-width:0.174352px;stroke-linecap:butt;stroke-linejoin:miter;stroke-opacity:1"
         inkscape:original-d="m 116.74983,144.10363 -3.40288,-10.50414 c -0.0753,-1.05904 0.42513,-0.6902 0.87942,-0.43573 l 2.78362,8.96824 1.40672,-12.01102 c 0.43952,-0.96234 0.82793,-1.06058 1.14627,0.0248 l -1.64984,14.69994 5.66102,-10.05928 c 1.29708,-0.77765 1.24318,0.18868 1.0822,0.80733 l -6.79301,11.8755 -0.97641,5.83153 -1.1609,-0.26239 z" />
      <path
         style="fill:#1fb800;fill-opacity:1;stroke:#1fb800;stroke-width:0.174352px;stroke-linecap:butt;stroke-linejoin:miter;stroke-opacity:1"
         d="m 126.74358,143.02457 c 2.01476,-3.22528 4.09019,-6.42561 6.20498,-9.60167 0.8714,-0.7575 0.97563,-0.12941 1.13759,0.3836 -1.84047,2.67236 -3.65508,5.36294 -5.42988,8.07225 3.83765,-2.35428 7.70028,-4.61097 11.49916,-6.79109 1.16991,-0.26776 1.54978,-0.0222 0.87242,0.9159 -4.59485,2.67254 -9.28854,5.45485 -13.91956,8.38471 4.45537,-0.88957 8.83576,-1.63644 13.06723,-2.29075 1.62999,0.52139 0.77464,1.09385 0.13872,1.36088 -4.99213,0.74177 -10.18875,1.61063 -15.46798,2.69102 -1.9166,1.10347 -3.82161,2.2338 -5.70419,3.39391 -0.27005,-0.33363 -0.54259,-0.66655 -0.81767,-0.99874 2.75989,-1.90139 5.57842,-3.73855 8.41918,-5.52002 z"
         id="path1028"
         inkscape:connector-curvature="0"
         sodipodi:nodetypes="ccccccccccccc"
         inkscape:original-d="m 122.3879,145.84676 3.84771,-10.34947 c 0.59796,-0.87732 0.76162,-0.27758 0.96005,0.20383 l -3.38055,8.76069 8.55472,-8.54752 c 0.94173,-0.48209 1.30731,-0.31818 0.88363,0.73057 l -10.41356,10.50562 10.68054,-4.37748 c 1.49974,0.19477 0.85797,0.91923 0.34791,1.30456 l -12.6951,5.09968 -4.38358,3.96791 -0.74771,-0.92599 z" />
    </g>
    <g
       id="g1070"
       style="fill:url(#linearGradient1082);fill-opacity:1;fill-rule:evenodd"
       transform="rotate(-10.628705,41.294088,90.913842)">
      <g
         id="g1066"
         style="fill:url(#linearGradient1078);fill-opacity:1;fill-rule:evenodd">
        <path
           style="fill:url(#linearGradient1072);fill-opacity:1;fill-rule:evenodd;stroke:#000000;stroke-width:0.264583px;stroke-linecap:butt;stroke-linejoin:miter;stroke-opacity:1"
           d="M 99.35112,75.662419 100.05825,61.51991 C 95.426759,59.682203 91.195913,59.647399 87.506769,62.050255 L 88.390676,75.8392 82.910454,59.221753 c 0.201442,0.476415 -0.446791,-5.098893 5.833785,-2.121376 6.729889,-4.550619 11.127298,-0.937556 16.087101,0.707125 L 99.35112,75.485637 88.346027,75.707068 87.45501,62.153875 c 4.694157,-2.910834 8.658882,-2.088546 12.65697,-0.648947 z"
           id="path1060"
           inkscape:connector-curvature="0"
           sodipodi:nodetypes="cccccccccccc" />
        <path
           sodipodi:nodetypes="cc"
           style="fill:url(#linearGradient1074);fill-opacity:1;fill-rule:evenodd;stroke:#000000;stroke-width:0.264583px;stroke-linecap:butt;stroke-linejoin:miter;stroke-opacity:1"
           d="m 82.955575,59.184036 c -0.359163,1.577438 4.56228,3.030308 4.56228,3.030308"
           id="path1062"
           inkscape:connector-curvature="0" />
        <path
           sodipodi:nodetypes="cc"
           style="fill:url(#linearGradient1076);fill-opacity:1;fill-rule:evenodd;stroke:#000000;stroke-width:0.264583px;stroke-linecap:butt;stroke-linejoin:miter;stroke-opacity:1"
           d="m 100.11198,61.504928 c 1.98023,-3.847387 4.34393,-3.566937 4.74985,-3.709909"
           id="path1064"
           inkscape:connector-curvature="0" />
      </g>
      <path
         inkscape:connector-curvature="0"
         id="path1068"
         d="m 88.760458,57.08942 0.609698,3.970322"
         style="fill:url(#linearGradient1080);fill-opacity:1;fill-rule:evenodd;stroke:#000000;stroke-width:0.264583px;stroke-linecap:butt;stroke-linejoin:miter;stroke-opacity:1" />
    </g>
    <path
       sodipodi:nodetypes="ccccc"
       inkscape:connector-curvature="0"
       id="path1090"
       d="m 94.327272,142.59144 c 0.961044,-25.75895 6.812068,-51.909093 -1.995863,-76.886522 l -2.093208,0.436586 c 8.805068,23.6987 2.887973,50.341836 1.93562,75.992016 z"
       style="fill:#1fb800;fill-opacity:1;stroke:#1fb800;stroke-width:0.264583px;stroke-linecap:butt;stroke-linejoin:miter;stroke-opacity:1" />
    <path
       style="fill:#1fb800;fill-opacity:1;stroke:#1fb800;stroke-width:0.264583px;stroke-linecap:butt;stroke-linejoin:miter;stroke-opacity:1"
       d="M 92.182939,142.5335 C 101.766,118.60419 111.36761,89.445975 116.89627,66.030297 l 2.69733,1.249055 c -5.48763,20.324658 -15.71,51.883868 -25.256826,75.710258 z"
       id="path1092"
       inkscape:connector-curvature="0"
       sodipodi:nodetypes="ccccc" />
  </g>
</svg>
