<?xml version="1.0" encoding="UTF-8" standalone="no"?>
<svg
   xmlns:dc="http://purl.org/dc/elements/1.1/"
   xmlns:cc="http://creativecommons.org/ns#"
   xmlns:rdf="http://www.w3.org/1999/02/22-rdf-syntax-ns#"
   xmlns:svg="http://www.w3.org/2000/svg"
   xmlns="http://www.w3.org/2000/svg"
   xmlns:sodipodi="http://sodipodi.sourceforge.net/DTD/sodipodi-0.dtd"
   xmlns:inkscape="http://www.inkscape.org/namespaces/inkscape"
   width="210mm"
   height="297mm"
   viewBox="0 0 210 297"
   version="1.1"
   id="svg1430"
   inkscape:version="1.0beta2 (2b71d25, 2019-12-03)"
   sodipodi:docname="research.svg">
  <defs
     id="defs1424" />
  <sodipodi:namedview
     id="base"
     pagecolor="#ffffff"
     bordercolor="#666666"
     borderopacity="1.0"
     inkscape:pageopacity="0.0"
     inkscape:pageshadow="2"
     inkscape:zoom="1.3966057"
     inkscape:cx="185.14396"
     inkscape:cy="521.3881"
     inkscape:document-units="mm"
     inkscape:current-layer="layer1"
     inkscape:document-rotation="0"
     showgrid="false"
     inkscape:window-width="1280"
     inkscape:window-height="755"
     inkscape:window-x="0"
     inkscape:window-y="23"
     inkscape:window-maximized="0" />
  <metadata
     id="metadata1427">
    <rdf:RDF>
      <cc:Work
         rdf:about="">
        <dc:format>image/svg+xml</dc:format>
        <dc:type
           rdf:resource="http://purl.org/dc/dcmitype/StillImage" />
        <dc:title />
      </cc:Work>
    </rdf:RDF>
  </metadata>
  <g
     inkscape:label="Layer 1"
     inkscape:groupmode="layer"
     id="layer1">
    <path
       style="fill:none;fill-rule:evenodd;stroke:#000000;stroke-width:0.264583px;stroke-linecap:butt;stroke-linejoin:miter;stroke-opacity:1"
       d="m 59.190815,160.5782 v 0"
       id="path26"
       inkscape:connector-type="polyline"
       inkscape:connector-curvature="0"
       sodipodi:nodetypes="cc" />
    <path
       style="fill:none;stroke:#000000;stroke-width:0.264583px;stroke-linecap:butt;stroke-linejoin:miter;stroke-opacity:1"
       d="m 18.520069,115.98491 0.485581,32.90062 60.799271,-0.62131 -0.210926,-32.69317 z"
       id="path44"
       sodipodi:nodetypes="ccccc"
       inkscape:connector-curvature="0" />
    <path
       style="fill:#2b0000;stroke-width:0.0944941"
       d="m 33.936075,160.34447 c -0.0821,-0.0331 -0.118118,-0.30459 -0.118118,-0.89023 v -0.84257 h 4.43942 4.43942 l 0.04942,-0.21261 c 0.108886,-0.46849 1.250803,-8.15288 1.217098,-8.19034 -0.0199,-0.0221 -5.914519,0.003 -13.099142,0.0562 -7.184626,0.0531 -13.070049,0.0924 -13.078719,0.0874 -0.05132,-0.0293 -0.507321,-35.33062 -0.457029,-35.38091 0.0338,-0.0338 4.533802,-0.0909 10.00001,-0.12684 15.735122,-0.10352 37.423263,-0.25861 45.633681,-0.32632 l 7.5359,-0.0622 9.5e-5,1.12369 c 6.9e-5,0.61803 0.106881,8.476 0.23736,17.46216 0.130482,8.98616 0.2261,16.34657 0.21249,16.35646 -0.0136,0.01 -3.426537,0.0915 -7.584274,0.18133 -13.750795,0.29711 -22.164108,0.50107 -22.196276,0.5381 -0.01746,0.0201 0.394231,1.86963 0.914855,4.11009 l 0.946591,4.07355 0.906997,0.0601 c 0.498851,0.033 1.853121,0.0603 3.009493,0.0606 l 2.102519,5.3e-4 v 0.99219 0.99219 l -12.496837,-0.008 c -6.87326,-0.004 -12.54999,-0.0289 -12.614954,-0.0551 z m 2.905692,-11.46779 c 8.717707,-0.0857 21.07273,-0.20968 36.117391,-0.36229 3.831288,-0.0389 6.979909,-0.0897 6.996935,-0.113 0.06187,-0.0846 -0.18112,-32.87759 -0.244078,-32.94055 -0.0611,-0.0611 -16.916151,0.0311 -47.736693,0.26112 -7.483927,0.0559 -13.614389,0.10838 -13.623248,0.11671 -0.0089,0.008 0.0857,6.73352 0.210127,14.94486 0.124426,8.21133 0.227349,15.68902 0.228716,16.61708 l 0.0024,1.68738 4.464844,-0.0608 c 2.455664,-0.0335 8.568246,-0.10117 13.583519,-0.1505 z"
       id="path46"
       inkscape:connector-curvature="0" />
    <rect
       y="127.71619"
       x="33.989288"
       height="15.99662"
       width="1.3594861"
       id="rect10"
       style="fill:#9a6823;fill-opacity:1;fill-rule:evenodd;stroke-width:0.0241635" />
    <path
       sodipodi:nodetypes="ccccccccccccccc"
       inkscape:connector-curvature="0"
       id="path883"
       d="m 34.877236,125.68141 c 0.08026,0.99535 1.148938,1.7197 2.583026,2.62834 l 0.271896,0.63442 -0.634432,-0.40784 -0.135948,0.13595 -0.271894,-0.36253 -0.453163,0.22658 -0.634427,-0.72506 -0.81569,0.90632 -2.039231,0.8157 v 0.18127 l -0.861008,-0.13596 0.271898,0.49848 -1.128157,-0.46204 c 2.543139,-1.71064 3.016066,-3.34617 3.84713,-3.93363 z"
       style="fill:#5a966a;fill-opacity:1;stroke:#000000;stroke-width:0.0258458px;stroke-linecap:butt;stroke-linejoin:miter;stroke-opacity:0" />
    <path
       sodipodi:nodetypes="ccccccccccccccc"
       inkscape:connector-curvature="0"
       id="path885"
       d="m 34.758059,129.98682 c 2.148206,1.50732 3.857674,2.63074 3.993008,2.37679 l 0.158448,0.44367 -0.443666,-0.19014 -0.348594,0.25353 -0.253526,-0.57043 -0.507048,0.50704 -2.313406,-0.79227 -0.602122,0.82396 -2.028192,0.76057 -0.602121,-0.41197 -1.014096,0.34859 0.475358,-0.85564 h -1.204241 c 1.771052,-0.5172 3.422863,-1.25302 4.690198,-2.6937 z"
       style="fill:#5a966a;fill-opacity:1;stroke:#5a966a;stroke-width:0.0258458px;stroke-linecap:butt;stroke-linejoin:miter;stroke-opacity:1" />
    <path
       sodipodi:nodetypes="ccccccccccc"
       inkscape:connector-curvature="0"
       id="path887"
       d="m 34.948203,133.18757 c 0.827665,0.90823 1.667707,2.0995 2.915526,2.50355 l 0.158454,0.91902 -0.475356,-0.0951 v -0.44367 l -0.665503,0.28521 -0.06338,-0.63381 -0.760572,0.12676 -1.394383,-0.6655 -0.348596,-0.76057 z"
       style="fill:#5a966a;fill-opacity:1;stroke:#000000;stroke-width:0.0258458px;stroke-linecap:butt;stroke-linejoin:miter;stroke-opacity:0" />
    <path
       sodipodi:nodetypes="ccccccccc"
       inkscape:connector-curvature="0"
       id="path889"
       d="m 35.043275,132.01501 c -1.035218,1.12327 -2.390191,2.31715 -3.929626,2.85216 l 0.919026,0.12676 0.348595,-0.31691 0.380287,0.31691 0.126762,-0.53874 0.253524,0.15845 1.742978,-0.82396 z"
       style="fill:#5a966a;fill-opacity:1;stroke:#5a966a;stroke-width:0.0258458px;stroke-linecap:butt;stroke-linejoin:miter;stroke-opacity:1" />
    <path
       sodipodi:nodetypes="ccccccccc"
       inkscape:connector-curvature="0"
       id="path891"
       d="m 34.567915,135.34252 c -0.587604,1.14216 -1.346258,1.77115 -2.186645,2.15496 l 1.109168,0.25352 0.158453,-0.57043 h 0.316905 v -0.47535 l 0.411977,0.28521 0.380286,-0.95072 z"
       style="fill:#5a966a;fill-opacity:1;stroke:#5a966a;stroke-width:0.0258458px;stroke-linecap:butt;stroke-linejoin:miter;stroke-opacity:1" />
    <rect
       style="fill:#9a6823;fill-opacity:1;fill-rule:evenodd;stroke-width:0.0241635"
       id="rect2033"
       width="1.3594861"
       height="15.99662"
       x="45.633007"
       y="125.57194" />
    <path
       style="fill:#5a966a;fill-opacity:1;stroke:#000000;stroke-width:0.0258458px;stroke-linecap:butt;stroke-linejoin:miter;stroke-opacity:0"
       d="m 46.520954,123.53715 c 0.08026,0.99536 1.148938,1.71971 2.583026,2.62834 l 0.271896,0.63443 -0.634431,-0.40784 -0.135949,0.13594 -0.271894,-0.36253 -0.453163,0.22659 -0.634426,-0.72506 -0.815691,0.90632 -2.03923,0.81569 v 0.18127 l -0.861008,-0.13596 0.271897,0.49849 -1.128157,-0.46204 c 2.543139,-1.71064 3.016066,-3.34618 3.84713,-3.93364 z"
       id="path2035"
       inkscape:connector-curvature="0"
       sodipodi:nodetypes="ccccccccccccccc" />
    <path
       style="fill:#5a966a;fill-opacity:1;stroke:#5a966a;stroke-width:0.0258458px;stroke-linecap:butt;stroke-linejoin:miter;stroke-opacity:1"
       d="m 46.401777,127.84257 c 2.148206,1.50731 3.857675,2.63074 3.993008,2.37678 l 0.158448,0.44367 -0.443666,-0.19014 -0.348593,0.25353 -0.253527,-0.57043 -0.507048,0.50704 -2.313406,-0.79226 -0.602121,0.82396 -2.028192,0.76057 -0.602122,-0.41198 -1.014096,0.34859 0.475359,-0.85564 H 41.71158 c 1.771052,-0.5172 3.422863,-1.25301 4.690197,-2.69369 z"
       id="path2037"
       inkscape:connector-curvature="0"
       sodipodi:nodetypes="ccccccccccccccc" />
    <path
       style="fill:#5a966a;fill-opacity:1;stroke:#000000;stroke-width:0.0258458px;stroke-linecap:butt;stroke-linejoin:miter;stroke-opacity:0"
       d="m 46.591922,131.04331 c 0.827664,0.90823 1.667706,2.09951 2.915525,2.50355 l 0.158455,0.91903 -0.475357,-0.0951 v -0.44367 l -0.665502,0.28522 -0.06338,-0.63381 -0.760571,0.12676 -1.394384,-0.6655 -0.348596,-0.76058 z"
       id="path2039"
       inkscape:connector-curvature="0"
       sodipodi:nodetypes="ccccccccccc" />
    <path
       style="fill:#5a966a;fill-opacity:1;stroke:#5a966a;stroke-width:0.0258458px;stroke-linecap:butt;stroke-linejoin:miter;stroke-opacity:1"
       d="m 46.686993,129.87076 c -1.035218,1.12326 -2.390191,2.31714 -3.929625,2.85215 l 0.919025,0.12676 0.348596,-0.31691 0.380286,0.31691 0.126762,-0.53873 0.253524,0.15845 1.742978,-0.82396 z"
       id="path2041"
       inkscape:connector-curvature="0"
       sodipodi:nodetypes="ccccccccc" />
    <path
       style="fill:#5a966a;fill-opacity:1;stroke:#5a966a;stroke-width:0.0258458px;stroke-linecap:butt;stroke-linejoin:miter;stroke-opacity:1"
       d="m 46.211634,133.19827 c -0.587605,1.14215 -1.346259,1.77115 -2.186645,2.15496 l 1.109168,0.25352 0.158452,-0.57043 h 0.316905 v -0.47536 l 0.411977,0.28522 0.380286,-0.95072 z"
       id="path2043"
       inkscape:connector-curvature="0"
       sodipodi:nodetypes="ccccccccc" />
    <rect
       y="128.18178"
       x="56.802544"
       height="15.99662"
       width="1.3594861"
       id="rect2045"
       style="fill:#9a6823;fill-opacity:1;fill-rule:evenodd;stroke-width:0.0241635" />
    <path
       sodipodi:nodetypes="ccccccccccccccc"
       inkscape:connector-curvature="0"
       id="path2047"
       d="m 57.690491,126.14699 c 0.08026,0.99536 1.148937,1.7197 2.583025,2.62834 l 0.271897,0.63443 -0.634432,-0.40784 -0.135948,0.13594 -0.271895,-0.36253 -0.453162,0.22659 -0.634427,-0.72506 -0.81569,0.90632 -2.039231,0.81569 v 0.18127 l -0.861008,-0.13596 0.271898,0.49848 -1.128158,-0.46203 c 2.543139,-1.71065 3.016066,-3.34618 3.847131,-3.93364 z"
       style="fill:#5a966a;fill-opacity:1;stroke:#000000;stroke-width:0.0258458px;stroke-linecap:butt;stroke-linejoin:miter;stroke-opacity:0" />
    <path
       sodipodi:nodetypes="ccccccccccccccc"
       inkscape:connector-curvature="0"
       id="path2049"
       d="m 57.571313,130.4524 c 2.148207,1.50732 3.857675,2.63075 3.993008,2.37679 l 0.158448,0.44367 -0.443665,-0.19014 -0.348594,0.25353 -0.253527,-0.57043 -0.507047,0.50704 -2.313407,-0.79226 -0.602121,0.82396 -2.028192,0.76057 -0.602121,-0.41198 -1.014096,0.34859 0.475358,-0.85564 h -1.204241 c 1.771052,-0.5172 3.422863,-1.25301 4.690197,-2.6937 z"
       style="fill:#5a966a;fill-opacity:1;stroke:#5a966a;stroke-width:0.0258458px;stroke-linecap:butt;stroke-linejoin:miter;stroke-opacity:1" />
    <path
       sodipodi:nodetypes="ccccccccccc"
       inkscape:connector-curvature="0"
       id="path2051"
       d="m 57.761458,133.65315 c 0.827665,0.90823 1.667706,2.0995 2.915525,2.50355 l 0.158455,0.91902 -0.475357,-0.0951 v -0.44367 l -0.665502,0.28521 -0.06338,-0.63381 -0.760572,0.12676 -1.394383,-0.66549 -0.348597,-0.76058 z"
       style="fill:#5a966a;fill-opacity:1;stroke:#000000;stroke-width:0.0258458px;stroke-linecap:butt;stroke-linejoin:miter;stroke-opacity:0" />
    <path
       sodipodi:nodetypes="ccccccccc"
       inkscape:connector-curvature="0"
       id="path2053"
       d="m 57.856529,132.4806 c -1.035218,1.12326 -2.390191,2.31714 -3.929625,2.85215 l 0.919026,0.12676 0.348595,-0.31691 0.380286,0.31691 0.126762,-0.53874 0.253525,0.15846 1.742977,-0.82396 z"
       style="fill:#5a966a;fill-opacity:1;stroke:#5a966a;stroke-width:0.0258458px;stroke-linecap:butt;stroke-linejoin:miter;stroke-opacity:1" />
    <path
       sodipodi:nodetypes="ccccccccc"
       inkscape:connector-curvature="0"
       id="path2055"
       d="m 57.38117,135.8081 c -0.587604,1.14216 -1.346259,1.77115 -2.186645,2.15496 l 1.109168,0.25353 0.158452,-0.57043 h 0.316905 v -0.47536 l 0.411978,0.28521 0.380285,-0.95072 z"
       style="fill:#5a966a;fill-opacity:1;stroke:#5a966a;stroke-width:0.0258458px;stroke-linecap:butt;stroke-linejoin:miter;stroke-opacity:1" />
    <rect
       style="fill:#9a6823;fill-opacity:1;fill-rule:evenodd;stroke-width:0.0241635"
       id="rect2057"
       width="1.3594861"
       height="15.99662"
       x="60.668785"
       y="128.97404" />
    <path
       style="fill:#5a966a;fill-opacity:1;stroke:#000000;stroke-width:0.0258458px;stroke-linecap:butt;stroke-linejoin:miter;stroke-opacity:0"
       d="m 61.556731,126.93925 c 0.08026,0.99536 1.148937,1.71971 2.583026,2.62835 l 0.271896,0.63442 -0.634432,-0.40784 -0.135948,0.13595 -0.271895,-0.36253 -0.453162,0.22658 -0.634427,-0.72506 -0.81569,0.90632 -2.039231,0.8157 v 0.18127 l -0.861008,-0.13596 0.271898,0.49848 -1.128158,-0.46204 c 2.54314,-1.71064 3.016066,-3.34618 3.847131,-3.93364 z"
       id="path2059"
       inkscape:connector-curvature="0"
       sodipodi:nodetypes="ccccccccccccccc" />
    <path
       style="fill:#5a966a;fill-opacity:1;stroke:#5a966a;stroke-width:0.0258458px;stroke-linecap:butt;stroke-linejoin:miter;stroke-opacity:1"
       d="m 61.437553,131.24467 c 2.148207,1.50731 3.857675,2.63074 3.993008,2.37679 l 0.158449,0.44367 -0.443666,-0.19014 -0.348594,0.25353 -0.253527,-0.57043 -0.507047,0.50704 -2.313407,-0.79227 -0.602121,0.82396 -2.028192,0.76057 -0.602121,-0.41197 -1.014096,0.34858 0.475358,-0.85563 h -1.204241 c 1.771052,-0.5172 3.422863,-1.25302 4.690197,-2.6937 z"
       id="path2061"
       inkscape:connector-curvature="0"
       sodipodi:nodetypes="ccccccccccccccc" />
    <path
       style="fill:#5a966a;fill-opacity:1;stroke:#000000;stroke-width:0.0258458px;stroke-linecap:butt;stroke-linejoin:miter;stroke-opacity:0"
       d="m 61.627698,134.44542 c 0.827665,0.90823 1.667706,2.0995 2.915525,2.50354 l 0.158455,0.91903 -0.475357,-0.0951 v -0.44367 l -0.665502,0.28522 -0.06338,-0.63381 -0.760572,0.12676 -1.394383,-0.6655 -0.348596,-0.76058 z"
       id="path2063"
       inkscape:connector-curvature="0"
       sodipodi:nodetypes="ccccccccccc" />
    <path
       style="fill:#5a966a;fill-opacity:1;stroke:#5a966a;stroke-width:0.0258458px;stroke-linecap:butt;stroke-linejoin:miter;stroke-opacity:1"
       d="m 61.722769,133.27286 c -1.035217,1.12327 -2.390191,2.31714 -3.929625,2.85215 l 0.919026,0.12676 0.348595,-0.31691 0.380286,0.31691 0.126763,-0.53873 0.253524,0.15845 1.742978,-0.82396 z"
       id="path2065"
       inkscape:connector-curvature="0"
       sodipodi:nodetypes="ccccccccc" />
    <path
       style="fill:#5a966a;fill-opacity:1;stroke:#5a966a;stroke-width:0.0258458px;stroke-linecap:butt;stroke-linejoin:miter;stroke-opacity:1"
       d="m 61.24741,136.60037 c -0.587604,1.14215 -1.346258,1.77115 -2.186645,2.15496 l 1.109168,0.25352 0.158452,-0.57043 h 0.316906 v -0.47536 l 0.411977,0.28522 0.380285,-0.95072 z"
       id="path2067"
       inkscape:connector-curvature="0"
       sodipodi:nodetypes="ccccccccc" />
    <rect
       y="127.68449"
       x="38.457653"
       height="15.99662"
       width="1.3594861"
       id="rect2069"
       style="fill:#9a6823;fill-opacity:1;fill-rule:evenodd;stroke-width:0.0241635" />
    <path
       sodipodi:nodetypes="ccccccccccccccc"
       inkscape:connector-curvature="0"
       id="path2071"
       d="m 39.345597,125.64971 c 0.08026,0.99536 1.148938,1.71971 2.583026,2.62834 l 0.271896,0.63443 -0.634431,-0.40784 -0.135949,0.13594 -0.271894,-0.36253 -0.453163,0.22659 -0.634426,-0.72506 -0.815691,0.90632 -2.03923,0.81569 v 0.18127 l -0.861008,-0.13596 0.271898,0.49848 -1.128158,-0.46203 c 2.543139,-1.71064 3.016066,-3.34618 3.84713,-3.93364 z"
       style="fill:#5a966a;fill-opacity:1;stroke:#000000;stroke-width:0.0258458px;stroke-linecap:butt;stroke-linejoin:miter;stroke-opacity:0" />
    <path
       sodipodi:nodetypes="ccccccccccccccc"
       inkscape:connector-curvature="0"
       id="path2073"
       d="m 39.22642,129.95513 c 2.148207,1.50731 3.857675,2.63074 3.993008,2.37678 l 0.158448,0.44367 -0.443666,-0.19014 -0.348593,0.25353 -0.253527,-0.57043 -0.507048,0.50704 -2.313406,-0.79226 -0.602121,0.82396 -2.028192,0.76057 -0.602122,-0.41198 -1.014096,0.34859 0.475359,-0.85564 h -1.204241 c 1.771052,-0.5172 3.422863,-1.25301 4.690197,-2.69369 z"
       style="fill:#5a966a;fill-opacity:1;stroke:#5a966a;stroke-width:0.0258458px;stroke-linecap:butt;stroke-linejoin:miter;stroke-opacity:1" />
    <path
       sodipodi:nodetypes="ccccccccccc"
       inkscape:connector-curvature="0"
       id="path2075"
       d="m 39.416565,133.15587 c 0.827664,0.90823 1.667706,2.09951 2.915525,2.50355 l 0.158455,0.91903 -0.475357,-0.0951 v -0.44367 l -0.665502,0.28522 -0.06338,-0.63381 -0.760571,0.12676 -1.394384,-0.6655 -0.348596,-0.76058 z"
       style="fill:#5a966a;fill-opacity:1;stroke:#000000;stroke-width:0.0258458px;stroke-linecap:butt;stroke-linejoin:miter;stroke-opacity:0" />
    <path
       sodipodi:nodetypes="ccccccccc"
       inkscape:connector-curvature="0"
       id="path2077"
       d="m 39.511636,131.98332 c -1.035218,1.12326 -2.390191,2.31714 -3.929625,2.85215 l 0.919025,0.12676 0.348596,-0.31691 0.380286,0.31691 0.126762,-0.53873 0.253524,0.15845 1.742978,-0.82396 z"
       style="fill:#5a966a;fill-opacity:1;stroke:#5a966a;stroke-width:0.0258458px;stroke-linecap:butt;stroke-linejoin:miter;stroke-opacity:1" />
    <path
       sodipodi:nodetypes="ccccccccc"
       inkscape:connector-curvature="0"
       id="path2079"
       d="m 39.036277,135.31083 c -0.587605,1.14215 -1.346259,1.77115 -2.186645,2.15496 l 1.109168,0.25352 0.158452,-0.57043 h 0.316905 v -0.47536 l 0.411977,0.28522 0.380286,-0.95072 z"
       style="fill:#5a966a;fill-opacity:1;stroke:#5a966a;stroke-width:0.0258458px;stroke-linecap:butt;stroke-linejoin:miter;stroke-opacity:1" />
  </g>
</svg>
